<?xml version="1.0" encoding="UTF-8" standalone="no"?>
<!DOCTYPE svg PUBLIC "-//W3C//DTD SVG 1.1//EN"
 "http://www.w3.org/Graphics/SVG/1.1/DTD/svg11.dtd">
<!-- Generated by graphviz version 2.47.0 (20210316.0004)
 -->
<!-- Title: dependencies Pages: 1 -->
<svg width="672pt" height="284pt"
 viewBox="0.00 0.00 672.00 284.00" xmlns="http://www.w3.org/2000/svg" xmlns:xlink="http://www.w3.org/1999/xlink">
<g id="graph0" class="graph" transform="scale(1 1) rotate(0) translate(4 280)">
<title>dependencies</title>
<polygon fill="white" stroke="transparent" points="-4,4 -4,-280 668,-280 668,4 -4,4"/>
<text text-anchor="start" x="311.01" y="-42.4" font-family="Times-12" font-weight="bold" font-size="14.00">Legend</text>
<polygon fill="#ffffb3" stroke="transparent" points="98,-10 98,-30 118,-30 118,-10 98,-10"/>
<text text-anchor="start" x="121.63" y="-15.4" font-family="Times-12" font-size="14.00"> &#160;Declarations</text>
<polygon fill="#8dd3c7" stroke="transparent" points="211,-10 211,-30 231,-30 231,-10 211,-10"/>
<text text-anchor="start" x="234.73" y="-15.4" font-family="Times-12" font-size="14.00"> &#160;Module</text>
<polygon fill="#80b1d3" stroke="transparent" points="297,-10 297,-30 317,-30 317,-10 297,-10"/>
<text text-anchor="start" x="320.78" y="-15.4" font-family="Times-12" font-size="14.00"> &#160;Bootstrap</text>
<polygon fill="#fdb462" stroke="transparent" points="394,-10 394,-30 414,-30 414,-10 394,-10"/>
<text text-anchor="start" x="417.67" y="-15.4" font-family="Times-12" font-size="14.00"> &#160;Providers</text>
<polygon fill="#fb8072" stroke="transparent" points="490,-10 490,-30 510,-30 510,-10 490,-10"/>
<text text-anchor="start" x="513.73" y="-15.4" font-family="Times-12" font-size="14.00"> &#160;Exports</text>
<g id="clust1" class="cluster">
<title>cluster_AdminModule</title>
<polygon fill="none" stroke="black" stroke-dasharray="1,5" points="8,-70 8,-268 656,-268 656,-70 8,-70"/>
</g>
<g id="clust4" class="cluster">
<title>cluster_AdminModule_exports</title>
<polygon fill="none" stroke="black" points="207,-208 207,-260 387,-260 387,-208 207,-208"/>
</g>
<g id="clust3" class="cluster">
<title>cluster_AdminModule_imports</title>
<polygon fill="none" stroke="black" points="16,-78 16,-130 648,-130 648,-78 16,-78"/>
</g>
<!-- AdminHeaderComponent -->
<g id="node1" class="node">
<title>AdminHeaderComponent</title>
<polygon fill="#8dd3c7" stroke="black" points="640.13,-122 637.13,-126 616.13,-126 613.13,-122 479.87,-122 479.87,-86 640.13,-86 640.13,-122"/>
<text text-anchor="middle" x="560" y="-99.8" font-family="Times,serif" font-size="14.00">AdminHeaderComponent</text>
</g>
<!-- AdminModule -->
<g id="node5" class="node">
<title>AdminModule</title>
<polygon fill="#8dd3c7" stroke="black" points="346.44,-187 343.44,-191 322.44,-191 319.44,-187 247.56,-187 247.56,-151 346.44,-151 346.44,-187"/>
<text text-anchor="middle" x="297" y="-164.8" font-family="Times,serif" font-size="14.00">AdminModule</text>
</g>
<!-- AdminHeaderComponent&#45;&gt;AdminModule -->
<g id="edge1" class="edge">
<title>AdminHeaderComponent&#45;&gt;AdminModule</title>
<path fill="none" stroke="black" d="M560,-122.11C560,-141.34 560,-169 560,-169 560,-169 356.47,-169 356.47,-169"/>
<polygon fill="black" stroke="black" points="356.47,-165.5 346.47,-169 356.47,-172.5 356.47,-165.5"/>
</g>
<!-- AdminLayoutComponent -->
<g id="node2" class="node">
<title>AdminLayoutComponent</title>
<polygon fill="#8dd3c7" stroke="black" points="461.88,-122 458.88,-126 437.88,-126 434.88,-122 302.12,-122 302.12,-86 461.88,-86 461.88,-122"/>
<text text-anchor="middle" x="382" y="-99.8" font-family="Times,serif" font-size="14.00">AdminLayoutComponent</text>
</g>
<!-- AdminLayoutComponent&#45;&gt;AdminModule -->
<g id="edge2" class="edge">
<title>AdminLayoutComponent&#45;&gt;AdminModule</title>
<path fill="none" stroke="black" d="M324.14,-122.11C324.14,-122.11 324.14,-140.99 324.14,-140.99"/>
<polygon fill="black" stroke="black" points="320.64,-140.99 324.14,-150.99 327.64,-140.99 320.64,-140.99"/>
</g>
<!-- AdminRoutingModule -->
<g id="node3" class="node">
<title>AdminRoutingModule</title>
<polygon fill="#8dd3c7" stroke="black" points="283.56,-122 280.56,-126 259.56,-126 256.56,-122 140.44,-122 140.44,-86 283.56,-86 283.56,-122"/>
<text text-anchor="middle" x="212" y="-99.8" font-family="Times,serif" font-size="14.00">AdminRoutingModule</text>
</g>
<!-- AdminRoutingModule&#45;&gt;AdminModule -->
<g id="edge3" class="edge">
<title>AdminRoutingModule&#45;&gt;AdminModule</title>
<path fill="none" stroke="black" d="M265.78,-122.11C265.78,-122.11 265.78,-140.99 265.78,-140.99"/>
<polygon fill="black" stroke="black" points="262.28,-140.99 265.78,-150.99 269.28,-140.99 262.28,-140.99"/>
</g>
<!-- SharedModule -->
<g id="node4" class="node">
<title>SharedModule</title>
<polygon fill="#8dd3c7" stroke="black" points="122.42,-122 119.42,-126 98.42,-126 95.42,-122 23.58,-122 23.58,-86 122.42,-86 122.42,-122"/>
<text text-anchor="middle" x="73" y="-99.8" font-family="Times,serif" font-size="14.00">SharedModule</text>
</g>
<!-- SharedModule&#45;&gt;AdminModule -->
<g id="edge4" class="edge">
<title>SharedModule&#45;&gt;AdminModule</title>
<path fill="none" stroke="black" d="M73,-122.11C73,-141.34 73,-169 73,-169 73,-169 237.56,-169 237.56,-169"/>
<polygon fill="black" stroke="black" points="237.56,-172.5 247.56,-169 237.56,-165.5 237.56,-172.5"/>
</g>
<!-- AdminHeaderComponent  -->
<g id="node6" class="node">
<title>AdminHeaderComponent </title>
<polygon fill="#fb8072" stroke="black" points="379.13,-252 214.87,-252 214.87,-216 379.13,-216 379.13,-252"/>
<text text-anchor="middle" x="297" y="-229.8" font-family="Times,serif" font-size="14.00">AdminHeaderComponent </text>
</g>
<!-- AdminModule&#45;&gt;AdminHeaderComponent  -->
<g id="edge5" class="edge">
<title>AdminModule&#45;&gt;AdminHeaderComponent </title>
<path fill="none" stroke="black" stroke-dasharray="5,2" d="M297,-187.11C297,-187.11 297,-205.99 297,-205.99"/>
<polygon fill="black" stroke="black" points="293.5,-205.99 297,-215.99 300.5,-205.99 293.5,-205.99"/>
</g>
</g>
</svg>
