<?xml version="1.0" encoding="UTF-8" standalone="no"?>
<!DOCTYPE svg PUBLIC "-//W3C//DTD SVG 1.1//EN"
 "http://www.w3.org/Graphics/SVG/1.1/DTD/svg11.dtd">
<!-- Generated by graphviz version 2.47.0 (20210316.0004)
 -->
<!-- Title: dependencies Pages: 1 -->
<svg width="504pt" height="284pt"
 viewBox="0.00 0.00 504.00 284.00" xmlns="http://www.w3.org/2000/svg" xmlns:xlink="http://www.w3.org/1999/xlink">
<g id="graph0" class="graph" transform="scale(1 1) rotate(0) translate(4 280)">
<title>dependencies</title>
<polygon fill="white" stroke="transparent" points="-4,4 -4,-280 500,-280 500,4 -4,4"/>
<text text-anchor="start" x="227.01" y="-42.4" font-family="Times-12" font-weight="bold" font-size="14.00">Legend</text>
<polygon fill="#ffffb3" stroke="transparent" points="14,-10 14,-30 34,-30 34,-10 14,-10"/>
<text text-anchor="start" x="37.63" y="-15.4" font-family="Times-12" font-size="14.00"> &#160;Declarations</text>
<polygon fill="#8dd3c7" stroke="transparent" points="127,-10 127,-30 147,-30 147,-10 127,-10"/>
<text text-anchor="start" x="150.73" y="-15.4" font-family="Times-12" font-size="14.00"> &#160;Module</text>
<polygon fill="#80b1d3" stroke="transparent" points="213,-10 213,-30 233,-30 233,-10 213,-10"/>
<text text-anchor="start" x="236.78" y="-15.4" font-family="Times-12" font-size="14.00"> &#160;Bootstrap</text>
<polygon fill="#fdb462" stroke="transparent" points="310,-10 310,-30 330,-30 330,-10 310,-10"/>
<text text-anchor="start" x="333.67" y="-15.4" font-family="Times-12" font-size="14.00"> &#160;Providers</text>
<polygon fill="#fb8072" stroke="transparent" points="406,-10 406,-30 426,-30 426,-10 406,-10"/>
<text text-anchor="start" x="429.73" y="-15.4" font-family="Times-12" font-size="14.00"> &#160;Exports</text>
<g id="clust1" class="cluster">
<title>cluster_AppModule</title>
<polygon fill="none" stroke="black" stroke-dasharray="1,5" points="59.5,-70 59.5,-268 436.5,-268 436.5,-70 59.5,-70"/>
</g>
<g id="clust3" class="cluster">
<title>cluster_AppModule_imports</title>
<polygon fill="none" stroke="black" points="67.5,-78 67.5,-130 428.5,-130 428.5,-78 67.5,-78"/>
</g>
<g id="clust5" class="cluster">
<title>cluster_AppModule_bootstrap</title>
<polygon fill="none" stroke="black" points="182.5,-208 182.5,-260 306.5,-260 306.5,-208 182.5,-208"/>
</g>
<!-- AppComponent -->
<g id="node1" class="node">
<title>AppComponent</title>
<polygon fill="#8dd3c7" stroke="black" points="420.44,-122 417.44,-126 396.44,-126 393.44,-122 314.56,-122 314.56,-86 420.44,-86 420.44,-122"/>
<text text-anchor="middle" x="367.5" y="-99.8" font-family="Times,serif" font-size="14.00">AppComponent</text>
</g>
<!-- AppModule -->
<g id="node4" class="node">
<title>AppModule</title>
<polygon fill="#8dd3c7" stroke="black" points="286.16,-187 283.16,-191 262.16,-191 259.16,-187 202.84,-187 202.84,-151 286.16,-151 286.16,-187"/>
<text text-anchor="middle" x="244.5" y="-164.8" font-family="Times,serif" font-size="14.00">AppModule</text>
</g>
<!-- AppComponent&#45;&gt;AppModule -->
<g id="edge1" class="edge">
<title>AppComponent&#45;&gt;AppModule</title>
<path fill="none" stroke="black" d="M367.5,-122.11C367.5,-141.34 367.5,-169 367.5,-169 367.5,-169 296.49,-169 296.49,-169"/>
<polygon fill="black" stroke="black" points="296.49,-165.5 286.49,-169 296.49,-172.5 296.49,-165.5"/>
</g>
<!-- LayoutsModule -->
<g id="node2" class="node">
<title>LayoutsModule</title>
<polygon fill="#8dd3c7" stroke="black" points="296.65,-122 293.65,-126 272.65,-126 269.65,-122 192.35,-122 192.35,-86 296.65,-86 296.65,-122"/>
<text text-anchor="middle" x="244.5" y="-99.8" font-family="Times,serif" font-size="14.00">LayoutsModule</text>
</g>
<!-- LayoutsModule&#45;&gt;AppModule -->
<g id="edge2" class="edge">
<title>LayoutsModule&#45;&gt;AppModule</title>
<path fill="none" stroke="black" d="M244.5,-122.11C244.5,-122.11 244.5,-140.99 244.5,-140.99"/>
<polygon fill="black" stroke="black" points="241,-140.99 244.5,-150.99 248,-140.99 241,-140.99"/>
</g>
<!-- SharedModule -->
<g id="node3" class="node">
<title>SharedModule</title>
<polygon fill="#8dd3c7" stroke="black" points="173.92,-122 170.92,-126 149.92,-126 146.92,-122 75.08,-122 75.08,-86 173.92,-86 173.92,-122"/>
<text text-anchor="middle" x="124.5" y="-99.8" font-family="Times,serif" font-size="14.00">SharedModule</text>
</g>
<!-- SharedModule&#45;&gt;AppModule -->
<g id="edge3" class="edge">
<title>SharedModule&#45;&gt;AppModule</title>
<path fill="none" stroke="black" d="M124.5,-122.11C124.5,-141.34 124.5,-169 124.5,-169 124.5,-169 192.53,-169 192.53,-169"/>
<polygon fill="black" stroke="black" points="192.53,-172.5 202.53,-169 192.53,-165.5 192.53,-172.5"/>
</g>
<!-- AppComponent  -->
<g id="node5" class="node">
<title>AppComponent </title>
<polygon fill="#80b1d3" stroke="black" points="298.94,-252 190.06,-252 190.06,-216 298.94,-216 298.94,-252"/>
<text text-anchor="middle" x="244.5" y="-229.8" font-family="Times,serif" font-size="14.00">AppComponent </text>
</g>
<!-- AppModule&#45;&gt;AppComponent  -->
<g id="edge4" class="edge">
<title>AppModule&#45;&gt;AppComponent </title>
<path fill="none" stroke="black" stroke-dasharray="1,5" d="M244.5,-187.11C244.5,-187.11 244.5,-205.99 244.5,-205.99"/>
<polygon fill="black" stroke="black" points="241,-205.99 244.5,-215.99 248,-205.99 241,-205.99"/>
</g>
</g>
</svg>
