<?xml version="1.0" encoding="UTF-8" standalone="no"?>
<!DOCTYPE svg PUBLIC "-//W3C//DTD SVG 1.1//EN"
 "http://www.w3.org/Graphics/SVG/1.1/DTD/svg11.dtd">
<!-- Generated by graphviz version 2.47.0 (20210316.0004)
 -->
<!-- Title: dependencies Pages: 1 -->
<svg width="632pt" height="211pt"
 viewBox="0.00 0.00 632.00 211.00" xmlns="http://www.w3.org/2000/svg" xmlns:xlink="http://www.w3.org/1999/xlink">
<g id="graph0" class="graph" transform="scale(1 1) rotate(0) translate(4 207)">
<title>dependencies</title>
<polygon fill="white" stroke="transparent" points="-4,4 -4,-207 628,-207 628,4 -4,4"/>
<text text-anchor="start" x="291.01" y="-42.4" font-family="Times-12" font-weight="bold" font-size="14.00">Legend</text>
<polygon fill="#ffffb3" stroke="transparent" points="78,-10 78,-30 98,-30 98,-10 78,-10"/>
<text text-anchor="start" x="101.63" y="-15.4" font-family="Times-12" font-size="14.00"> &#160;Declarations</text>
<polygon fill="#8dd3c7" stroke="transparent" points="191,-10 191,-30 211,-30 211,-10 191,-10"/>
<text text-anchor="start" x="214.73" y="-15.4" font-family="Times-12" font-size="14.00"> &#160;Module</text>
<polygon fill="#80b1d3" stroke="transparent" points="277,-10 277,-30 297,-30 297,-10 277,-10"/>
<text text-anchor="start" x="300.78" y="-15.4" font-family="Times-12" font-size="14.00"> &#160;Bootstrap</text>
<polygon fill="#fdb462" stroke="transparent" points="374,-10 374,-30 394,-30 394,-10 374,-10"/>
<text text-anchor="start" x="397.67" y="-15.4" font-family="Times-12" font-size="14.00"> &#160;Providers</text>
<polygon fill="#fb8072" stroke="transparent" points="470,-10 470,-30 490,-30 490,-10 470,-10"/>
<text text-anchor="start" x="493.73" y="-15.4" font-family="Times-12" font-size="14.00"> &#160;Exports</text>
<g id="clust1" class="cluster">
<title>cluster_SalesModule</title>
<polygon fill="none" stroke="black" stroke-dasharray="1,5" points="8,-70 8,-195 616,-195 616,-70 8,-70"/>
</g>
<g id="clust3" class="cluster">
<title>cluster_SalesModule_imports</title>
<polygon fill="none" stroke="black" points="16,-78 16,-130 608,-130 608,-78 16,-78"/>
</g>
<!-- RouterOutlet -->
<g id="node1" class="node">
<title>RouterOutlet</title>
<polygon fill="#8dd3c7" stroke="black" points="599.6,-122 596.6,-126 575.6,-126 572.6,-122 510.4,-122 510.4,-86 599.6,-86 599.6,-122"/>
<text text-anchor="middle" x="555" y="-99.8" font-family="Times,serif" font-size="14.00">RouterOutlet</text>
</g>
<!-- SalesModule -->
<g id="node5" class="node">
<title>SalesModule</title>
<polygon fill="#8dd3c7" stroke="black" points="379.6,-187 376.6,-191 355.6,-191 352.6,-187 290.4,-187 290.4,-151 379.6,-151 379.6,-187"/>
<text text-anchor="middle" x="335" y="-164.8" font-family="Times,serif" font-size="14.00">SalesModule</text>
</g>
<!-- RouterOutlet&#45;&gt;SalesModule -->
<g id="edge1" class="edge">
<title>RouterOutlet&#45;&gt;SalesModule</title>
<path fill="none" stroke="black" d="M555,-122.11C555,-141.34 555,-169 555,-169 555,-169 389.79,-169 389.79,-169"/>
<polygon fill="black" stroke="black" points="389.79,-165.5 379.79,-169 389.79,-172.5 389.79,-165.5"/>
</g>
<!-- SalesFooterComponent -->
<g id="node2" class="node">
<title>SalesFooterComponent</title>
<polygon fill="#8dd3c7" stroke="black" points="492.93,-122 489.93,-126 468.93,-126 465.93,-122 345.07,-122 345.07,-86 492.93,-86 492.93,-122"/>
<text text-anchor="middle" x="419" y="-99.8" font-family="Times,serif" font-size="14.00">SalesFooterComponent</text>
</g>
<!-- SalesFooterComponent&#45;&gt;SalesModule -->
<g id="edge2" class="edge">
<title>SalesFooterComponent&#45;&gt;SalesModule</title>
<path fill="none" stroke="black" d="M362.42,-122.11C362.42,-122.11 362.42,-140.99 362.42,-140.99"/>
<polygon fill="black" stroke="black" points="358.92,-140.99 362.42,-150.99 365.92,-140.99 358.92,-140.99"/>
</g>
<!-- SalesHeaderComponent -->
<g id="node3" class="node">
<title>SalesHeaderComponent</title>
<polygon fill="#8dd3c7" stroke="black" points="327.79,-122 324.79,-126 303.79,-126 300.79,-122 176.21,-122 176.21,-86 327.79,-86 327.79,-122"/>
<text text-anchor="middle" x="252" y="-99.8" font-family="Times,serif" font-size="14.00">SalesHeaderComponent</text>
</g>
<!-- SalesHeaderComponent&#45;&gt;SalesModule -->
<g id="edge3" class="edge">
<title>SalesHeaderComponent&#45;&gt;SalesModule</title>
<path fill="none" stroke="black" d="M309.05,-122.11C309.05,-122.11 309.05,-140.99 309.05,-140.99"/>
<polygon fill="black" stroke="black" points="305.55,-140.99 309.05,-150.99 312.55,-140.99 305.55,-140.99"/>
</g>
<!-- SalesRoutingModule -->
<g id="node4" class="node">
<title>SalesRoutingModule</title>
<polygon fill="#8dd3c7" stroke="black" points="158.21,-122 155.21,-126 134.21,-126 131.21,-122 23.79,-122 23.79,-86 158.21,-86 158.21,-122"/>
<text text-anchor="middle" x="91" y="-99.8" font-family="Times,serif" font-size="14.00">SalesRoutingModule</text>
</g>
<!-- SalesRoutingModule&#45;&gt;SalesModule -->
<g id="edge4" class="edge">
<title>SalesRoutingModule&#45;&gt;SalesModule</title>
<path fill="none" stroke="black" d="M91,-122.11C91,-141.34 91,-169 91,-169 91,-169 280.25,-169 280.25,-169"/>
<polygon fill="black" stroke="black" points="280.25,-172.5 290.25,-169 280.25,-165.5 280.25,-172.5"/>
</g>
</g>
</svg>
